# Exported from Wings 3D 0.98.36
mtllib testshape.mtl
o cube1
#168 vertices, 174 faces
v -1.00000000 -1.00000000 1.00000000
v -1.00000000 1.00000000 1.00000000
v 1.00000000 1.00000000 1.00000000
v 1.00000000 -1.00000000 1.00000000
v -1.00000000 -1.00000000 -1.00000000
v -1.00000000 1.00000000 -1.00000000
v 1.00000000 1.00000000 -1.00000000
v 1.00000000 -1.00000000 -1.00000000
v -0.41600000 0.41600000 1.00000000
v -0.41600000 -0.41600000 1.00000000
v 0.41600000 -0.41600000 1.00000000
v 0.41600000 0.41600000 1.00000000
v 1.00000000 0.41600000 0.41600000
v 1.00000000 -0.41600000 0.41600000
v 1.00000000 -0.41600000 -0.41600000
v 1.00000000 0.41600000 -0.41600000
v 0.41600000 -1.00000000 0.41600000
v -0.41600000 -1.00000000 0.41600000
v -0.41600000 -1.00000000 -0.41600000
v 0.41600000 -1.00000000 -0.41600000
v -0.41600000 1.00000000 0.41600000
v 0.41600000 1.00000000 0.41600000
v 0.41600000 1.00000000 -0.41600000
v -0.41600000 1.00000000 -0.41600000
v -0.41600000 -0.41600000 -1.00000000
v -0.41600000 0.41600000 -1.00000000
v 0.41600000 0.41600000 -1.00000000
v 0.41600000 -0.41600000 -1.00000000
v -1.00000000 -0.41600000 0.41600000
v -1.00000000 0.41600000 0.41600000
v -1.00000000 0.41600000 -0.41600000
v -1.00000000 -0.41600000 -0.41600000
v -0.41600000 0.41600000 2.60196198
v -0.41600000 -0.41600000 2.60196198
v 0.41600000 -0.41600000 2.60196198
v 0.41600000 0.41600000 2.60196198
v 2.60196198 0.41600000 0.41600000
v 2.60196198 -0.41600000 0.41600000
v 2.60196198 -0.41600000 -0.41600000
v 2.60196198 0.41600000 -0.41600000
v 0.41600000 -2.60196198 0.41600000
v -0.41600000 -2.60196198 0.41600000
v -0.41600000 -2.60196198 -0.41600000
v 0.41600000 -2.60196198 -0.41600000
v -0.41600000 2.60196198 0.41600000
v 0.41600000 2.60196198 0.41600000
v 0.41600000 2.60196198 -0.41600000
v -0.41600000 2.60196198 -0.41600000
v -0.41600000 -0.41600000 -2.60196198
v -0.41600000 0.41600000 -2.60196198
v 0.41600000 0.41600000 -2.60196198
v 0.41600000 -0.41600000 -2.60196198
v -2.60196198 -0.41600000 0.41600000
v -2.60196198 0.41600000 0.41600000
v -2.60196198 0.41600000 -0.41600000
v -2.60196198 -0.41600000 -0.41600000
v -0.84947200 0.84947200 2.60196198
v -0.84947200 -0.84947200 2.60196198
v 0.84947200 -0.84947200 2.60196198
v 0.84947200 0.84947200 2.60196198
v 2.60196198 0.84947200 0.84947200
v 2.60196198 -0.84947200 0.84947200
v 2.60196198 -0.84947200 -0.84947200
v 2.60196198 0.84947200 -0.84947200
v 0.84947200 -2.60196198 0.84947200
v -0.84947200 -2.60196198 0.84947200
v -0.84947200 -2.60196198 -0.84947200
v 0.84947200 -2.60196198 -0.84947200
v -0.84947200 2.60196198 0.84947200
v 0.84947200 2.60196198 0.84947200
v 0.84947200 2.60196198 -0.84947200
v -0.84947200 2.60196198 -0.84947200
v -0.84947200 -0.84947200 -2.60196198
v -0.84947200 0.84947200 -2.60196198
v 0.84947200 0.84947200 -2.60196198
v 0.84947200 -0.84947200 -2.60196198
v -2.60196198 -0.84947200 0.84947200
v -2.60196198 0.84947200 0.84947200
v -2.60196198 0.84947200 -0.84947200
v -2.60196198 -0.84947200 -0.84947200
v -0.84947200 0.84947200 4.12229233
v -0.84947200 -0.84947200 4.12229233
v 0.84947200 -0.84947200 4.12229233
v 0.84947200 0.84947200 4.12229233
v 4.12229233 0.84947200 0.84947200
v 4.12229233 -0.84947200 0.84947200
v 4.12229233 -0.84947200 -0.84947200
v 4.12229233 0.84947200 -0.84947200
v 0.84947200 -4.12229233 0.84947200
v -0.84947200 -4.12229233 0.84947200
v -0.84947200 -4.12229233 -0.84947200
v 0.84947200 -4.12229233 -0.84947200
v -0.84947200 4.12229233 0.84947200
v 0.84947200 4.12229233 0.84947200
v 0.84947200 4.12229233 -0.84947200
v -0.84947200 4.12229233 -0.84947200
v -0.84947200 -0.84947200 -4.12229233
v -0.84947200 0.84947200 -4.12229233
v 0.84947200 0.84947200 -4.12229233
v 0.84947200 -0.84947200 -4.12229233
v -4.12229233 -0.84947200 0.84947200
v -4.12229233 0.84947200 0.84947200
v -4.12229233 0.84947200 -0.84947200
v -4.12229233 -0.84947200 -0.84947200
v -0.84947200 -0.52868230 3.80150262
v -0.84947200 0.52868230 3.80150262
v -0.84947200 0.52868230 2.92275169
v -0.84947200 -0.52868230 2.92275169
v 0.84947200 0.52868230 3.80150262
v 0.84947200 -0.52868230 3.80150262
v 0.84947200 -0.52868230 2.92275169
v 0.84947200 0.52868230 2.92275169
v 3.80150262 -0.52868230 0.84947200
v 3.80150262 0.52868230 0.84947200
v 2.92275169 0.52868230 0.84947200
v 2.92275169 -0.52868230 0.84947200
v 3.80150262 0.52868230 -0.84947200
v 3.80150262 -0.52868230 -0.84947200
v 2.92275169 -0.52868230 -0.84947200
v 2.92275169 0.52868230 -0.84947200
v -0.84947200 0.52868230 -3.80150262
v -0.84947200 -0.52868230 -3.80150262
v -0.84947200 -0.52868230 -2.92275169
v -0.84947200 0.52868230 -2.92275169
v 0.84947200 -0.52868230 -3.80150262
v 0.84947200 0.52868230 -3.80150262
v 0.84947200 0.52868230 -2.92275169
v 0.84947200 -0.52868230 -2.92275169
v -3.80150262 0.52868230 0.84947200
v -3.80150262 -0.52868230 0.84947200
v -2.92275169 -0.52868230 0.84947200
v -2.92275169 0.52868230 0.84947200
v -3.80150262 -0.52868230 -0.84947200
v -3.80150262 0.52868230 -0.84947200
v -2.92275169 0.52868230 -0.84947200
v -2.92275169 -0.52868230 -0.84947200
v -2.10514595 -0.52868230 3.80150262
v -2.10514595 0.52868230 3.80150262
v -2.10514595 0.52868230 2.92275169
v -2.10514595 -0.52868230 2.92275169
v 2.10514595 0.52868230 3.80150262
v 2.10514595 -0.52868230 3.80150262
v 2.10514595 -0.52868230 2.92275169
v 2.10514595 0.52868230 2.92275169
v 3.80150262 -0.52868230 2.10514595
v 3.80150262 0.52868230 2.10514595
v 2.92275169 0.52868230 2.10514595
v 2.92275169 -0.52868230 2.10514595
v 3.80150262 0.52868230 -2.10514595
v 3.80150262 -0.52868230 -2.10514595
v 2.92275169 -0.52868230 -2.10514595
v 2.92275169 0.52868230 -2.10514595
v -2.10514595 0.52868230 -3.80150262
v -2.10514595 -0.52868230 -3.80150262
v -2.10514595 -0.52868230 -2.92275169
v -2.10514595 0.52868230 -2.92275169
v 2.10514595 -0.52868230 -3.80150262
v 2.10514595 0.52868230 -3.80150262
v 2.10514595 0.52868230 -2.92275169
v 2.10514595 -0.52868230 -2.92275169
v -3.80150262 0.52868230 2.10514595
v -3.80150262 -0.52868230 2.10514595
v -2.92275169 -0.52868230 2.10514595
v -2.92275169 0.52868230 2.10514595
v -3.80150262 -0.52868230 -2.10514595
v -3.80150262 0.52868230 -2.10514595
v -2.92275169 0.52868230 -2.10514595
v -2.92275169 -0.52868230 -2.10514595
vn -0.57735027 -0.57735027 0.57735027
vn -0.57735027 0.57735027 0.57735027
vn 0.57735027 0.57735027 0.57735027
vn 0.57735027 -0.57735027 0.57735027
vn -0.57735027 -0.57735027 -0.57735027
vn -0.57735027 0.57735027 -0.57735027
vn 0.57735027 0.57735027 -0.57735027
vn 0.57735027 -0.57735027 -0.57735027
vn -0.40824829 0.40824829 0.81649658
vn -0.40824829 -0.40824829 0.81649658
vn 0.40824829 -0.40824829 0.81649658
vn 0.40824829 0.40824829 0.81649658
vn 0.81649658 0.40824829 0.40824829
vn 0.81649658 -0.40824829 0.40824829
vn 0.81649658 -0.40824829 -0.40824829
vn 0.81649658 0.40824829 -0.40824829
vn 0.40824829 -0.81649658 0.40824829
vn -0.40824829 -0.81649658 0.40824829
vn -0.40824829 -0.81649658 -0.40824829
vn 0.40824829 -0.81649658 -0.40824829
vn -0.40824829 0.81649658 0.40824829
vn 0.40824829 0.81649658 0.40824829
vn 0.40824829 0.81649658 -0.40824829
vn -0.40824829 0.81649658 -0.40824829
vn -0.40824829 -0.40824829 -0.81649658
vn -0.40824829 0.40824829 -0.81649658
vn 0.40824829 0.40824829 -0.81649658
vn 0.40824829 -0.40824829 -0.81649658
vn -0.81649658 -0.40824829 0.40824829
vn -0.81649658 0.40824829 0.40824829
vn -0.81649658 0.40824829 -0.40824829
vn -0.81649658 -0.40824829 -0.40824829
vn -0.40824829 0.40824829 -0.81649658
vn -0.40824829 -0.40824829 -0.81649658
vn 0.40824829 -0.40824829 -0.81649658
vn 0.40824829 0.40824829 -0.81649658
vn -0.81649658 0.40824829 0.40824829
vn -0.81649658 -0.40824829 0.40824829
vn -0.81649658 -0.40824829 -0.40824829
vn -0.81649658 0.40824829 -0.40824829
vn 0.40824829 0.81649658 0.40824829
vn -0.40824829 0.81649658 0.40824829
vn -0.40824829 0.81649658 -0.40824829
vn 0.40824829 0.81649658 -0.40824829
vn -0.40824829 -0.81649658 0.40824829
vn 0.40824829 -0.81649658 0.40824829
vn 0.40824829 -0.81649658 -0.40824829
vn -0.40824829 -0.81649658 -0.40824829
vn -0.40824829 -0.40824829 0.81649658
vn -0.40824829 0.40824829 0.81649658
vn 0.40824829 0.40824829 0.81649658
vn 0.40824829 -0.40824829 0.81649658
vn 0.81649658 -0.40824829 0.40824829
vn 0.81649658 0.40824829 0.40824829
vn 0.81649658 0.40824829 -0.40824829
vn 0.81649658 -0.40824829 -0.40824829
vn -0.66666667 0.33333333 -0.66666667
vn -0.66666667 -0.33333333 -0.66666667
vn 0.66666667 -0.33333333 -0.66666667
vn 0.66666667 0.33333333 -0.66666667
vn -0.66666667 0.33333333 0.66666667
vn -0.66666667 -0.33333333 0.66666667
vn -0.66666667 -0.33333333 -0.66666667
vn -0.66666667 0.33333333 -0.66666667
vn 0.40824829 0.81649658 0.40824829
vn -0.40824829 0.81649658 0.40824829
vn -0.40824829 0.81649658 -0.40824829
vn 0.40824829 0.81649658 -0.40824829
vn -0.40824829 -0.81649658 0.40824829
vn 0.40824829 -0.81649658 0.40824829
vn 0.40824829 -0.81649658 -0.40824829
vn -0.40824829 -0.81649658 -0.40824829
vn -0.66666667 -0.33333333 0.66666667
vn -0.66666667 0.33333333 0.66666667
vn 0.66666667 0.33333333 0.66666667
vn 0.66666667 -0.33333333 0.66666667
vn 0.66666667 -0.33333333 0.66666667
vn 0.66666667 0.33333333 0.66666667
vn 0.66666667 0.33333333 -0.66666667
vn 0.66666667 -0.33333333 -0.66666667
vn -0.81649658 0.40824829 0.40824829
vn -0.81649658 -0.40824829 0.40824829
vn 0.81649658 -0.40824829 0.40824829
vn 0.81649658 0.40824829 0.40824829
vn 0.40824829 0.40824829 0.81649658
vn 0.40824829 -0.40824829 0.81649658
vn 0.40824829 -0.40824829 -0.81649658
vn 0.40824829 0.40824829 -0.81649658
vn 0.57735027 -0.57735027 0.57735027
vn -0.57735027 -0.57735027 0.57735027
vn -0.57735027 -0.57735027 -0.57735027
vn 0.57735027 -0.57735027 -0.57735027
vn -0.57735027 0.57735027 0.57735027
vn 0.57735027 0.57735027 0.57735027
vn 0.57735027 0.57735027 -0.57735027
vn -0.57735027 0.57735027 -0.57735027
vn -0.81649658 -0.40824829 -0.40824829
vn -0.81649658 0.40824829 -0.40824829
vn 0.81649658 0.40824829 -0.40824829
vn 0.81649658 -0.40824829 -0.40824829
vn -0.40824829 -0.40824829 0.81649658
vn -0.40824829 0.40824829 0.81649658
vn -0.40824829 0.40824829 -0.81649658
vn -0.40824829 -0.40824829 -0.81649658
vn -0.81649658 -0.40824829 0.40824829
vn -0.81649658 0.40824829 0.40824829
vn -0.81649658 0.40824829 -0.40824829
vn -0.81649658 -0.40824829 -0.40824829
vn 0.81649658 0.40824829 0.40824829
vn 0.81649658 -0.40824829 0.40824829
vn 0.81649658 -0.40824829 -0.40824829
vn 0.81649658 0.40824829 -0.40824829
vn 0.40824829 -0.40824829 0.81649658
vn 0.40824829 0.40824829 0.81649658
vn -0.40824829 0.40824829 0.81649658
vn -0.40824829 -0.40824829 0.81649658
vn 0.40824829 0.40824829 -0.81649658
vn 0.40824829 -0.40824829 -0.81649658
vn -0.40824829 -0.40824829 -0.81649658
vn -0.40824829 0.40824829 -0.81649658
vn -0.81649658 0.40824829 -0.40824829
vn -0.81649658 -0.40824829 -0.40824829
vn -0.81649658 -0.40824829 0.40824829
vn -0.81649658 0.40824829 0.40824829
vn 0.81649658 -0.40824829 -0.40824829
vn 0.81649658 0.40824829 -0.40824829
vn 0.81649658 0.40824829 0.40824829
vn 0.81649658 -0.40824829 0.40824829
vn -0.40824829 0.40824829 0.81649658
vn -0.40824829 -0.40824829 0.81649658
vn 0.40824829 -0.40824829 0.81649658
vn 0.40824829 0.40824829 0.81649658
vn -0.40824829 -0.40824829 -0.81649658
vn -0.40824829 0.40824829 -0.81649658
vn 0.40824829 0.40824829 -0.81649658
vn 0.40824829 -0.40824829 -0.81649658
vn -0.25968834 -0.73450956 0.62694312
vn -0.25968834 0.73450956 0.62694312
vn 0.25968834 0.73450956 -0.62694312
vn 0.25968834 -0.73450956 -0.62694312
vn 0.25968834 0.73450956 0.62694312
vn 0.25968834 -0.73450956 0.62694312
vn -0.25968834 -0.73450956 -0.62694312
vn -0.25968834 0.73450956 -0.62694312
vn 0.62694312 -0.73450956 0.25968834
vn 0.62694312 0.73450956 0.25968834
vn -0.62694312 0.73450956 -0.25968834
vn -0.62694312 -0.73450956 -0.25968834
vn 0.62694312 0.73450956 -0.25968834
vn 0.62694312 -0.73450956 -0.25968834
vn -0.62694312 -0.73450956 0.25968834
vn -0.62694312 0.73450956 0.25968834
vn -0.25968834 0.73450956 -0.62694312
vn -0.25968834 -0.73450956 -0.62694312
vn 0.25968834 -0.73450956 0.62694312
vn 0.25968834 0.73450956 0.62694312
vn 0.25968834 -0.73450956 -0.62694312
vn 0.25968834 0.73450956 -0.62694312
vn -0.25968834 0.73450956 0.62694312
vn -0.25968834 -0.73450956 0.62694312
vn -0.62694312 0.73450956 0.25968834
vn -0.62694312 -0.73450956 0.25968834
vn 0.62694312 -0.73450956 -0.25968834
vn 0.62694312 0.73450956 -0.25968834
vn -0.62694312 -0.73450956 -0.25968834
vn -0.62694312 0.73450956 -0.25968834
vn 0.62694312 0.73450956 0.25968834
vn 0.62694312 -0.73450956 0.25968834
g cube1_default
usemtl default
f 1//1 10//10 9//9 2//2
f 1//1 18//18 17//17 4//4
f 1//1 29//29 32//32 5//5
f 2//2 9//9 12//12 3//3
f 2//2 21//21 24//24 6//6
f 2//2 30//30 29//29 1//1
f 3//3 12//12 11//11 4//4
f 3//3 13//13 16//16 7//7
f 3//3 22//22 21//21 2//2
f 4//4 11//11 10//10 1//1
f 4//4 14//14 13//13 3//3
f 4//4 17//17 20//20 8//8
f 5//5 19//19 18//18 1//1
f 5//5 25//25 28//28 8//8
f 5//5 32//32 31//31 6//6
f 6//6 24//24 23//23 7//7
f 6//6 26//26 25//25 5//5
f 6//6 31//31 30//30 2//2
f 7//7 16//16 15//15 8//8
f 7//7 23//23 22//22 3//3
f 7//7 27//27 26//26 6//6
f 8//8 15//15 14//14 4//4
f 8//8 20//20 19//19 5//5
f 8//8 28//28 27//27 7//7
f 9//9 33//33 36//36 12//12
f 10//10 34//34 33//33 9//9
f 11//11 35//35 34//34 10//10
f 12//12 36//36 35//35 11//11
f 13//13 37//37 40//40 16//16
f 14//14 38//38 37//37 13//13
f 15//15 39//39 38//38 14//14
f 16//16 40//40 39//39 15//15
f 17//17 41//41 44//44 20//20
f 18//18 42//42 41//41 17//17
f 19//19 43//43 42//42 18//18
f 20//20 44//44 43//43 19//19
f 21//21 45//45 48//48 24//24
f 22//22 46//46 45//45 21//21
f 23//23 47//47 46//46 22//22
f 24//24 48//48 47//47 23//23
f 25//25 49//49 52//52 28//28
f 26//26 50//50 49//49 25//25
f 27//27 51//51 50//50 26//26
f 28//28 52//52 51//51 27//27
f 29//29 53//53 56//56 32//32
f 30//30 54//54 53//53 29//29
f 31//31 55//55 54//54 30//30
f 32//32 56//56 55//55 31//31
f 33//33 57//57 60//60 36//36
f 34//34 58//58 57//57 33//33
f 35//35 59//59 58//58 34//34
f 36//36 60//60 59//59 35//35
f 37//37 61//61 64//64 40//40
f 38//38 62//62 61//61 37//37
f 39//39 63//63 62//62 38//38
f 40//40 64//64 63//63 39//39
f 41//41 65//65 68//68 44//44
f 42//42 66//66 65//65 41//41
f 43//43 67//67 66//66 42//42
f 44//44 68//68 67//67 43//43
f 45//45 69//69 72//72 48//48
f 46//46 70//70 69//69 45//45
f 47//47 71//71 70//70 46//46
f 48//48 72//72 71//71 47//47
f 49//49 73//73 76//76 52//52
f 50//50 74//74 73//73 49//49
f 51//51 75//75 74//74 50//50
f 52//52 76//76 75//75 51//51
f 53//53 77//77 80//80 56//56
f 54//54 78//78 77//77 53//53
f 55//55 79//79 78//78 54//54
f 56//56 80//80 79//79 55//55
f 57//57 81//81 84//84 60//60
f 57//57 107//107 106//106 81//81
f 58//58 108//108 107//107 57//57
f 59//59 83//83 82//82 58//58
f 59//59 111//111 110//110 83//83
f 60//60 112//112 111//111 59//59
f 61//61 85//85 88//88 64//64
f 61//61 115//115 114//114 85//85
f 62//62 116//116 115//115 61//61
f 63//63 87//87 86//86 62//62
f 63//63 119//119 118//118 87//87
f 64//64 120//120 119//119 63//63
f 65//65 89//89 92//92 68//68
f 66//66 90//90 89//89 65//65
f 67//67 91//91 90//90 66//66
f 68//68 92//92 91//91 67//67
f 69//69 93//93 96//96 72//72
f 70//70 94//94 93//93 69//69
f 71//71 95//95 94//94 70//70
f 72//72 96//96 95//95 71//71
f 73//73 97//97 100//100 76//76
f 73//73 123//123 122//122 97//97
f 74//74 124//124 123//123 73//73
f 75//75 99//99 98//98 74//74
f 75//75 127//127 126//126 99//99
f 76//76 128//128 127//127 75//75
f 77//77 101//101 104//104 80//80
f 77//77 131//131 130//130 101//101
f 78//78 132//132 131//131 77//77
f 79//79 103//103 102//102 78//78
f 79//79 135//135 134//134 103//103
f 80//80 136//136 135//135 79//79
f 81//81 106//106 105//105 82//82
f 82//82 83//83 84//84 81//81
f 82//82 105//105 108//108 58//58
f 83//83 110//110 109//109 84//84
f 84//84 109//109 112//112 60//60
f 85//85 114//114 113//113 86//86
f 86//86 87//87 88//88 85//85
f 86//86 113//113 116//116 62//62
f 87//87 118//118 117//117 88//88
f 88//88 117//117 120//120 64//64
f 90//90 91//91 92//92 89//89
f 94//94 95//95 96//96 93//93
f 97//97 122//122 121//121 98//98
f 98//98 99//99 100//100 97//97
f 98//98 121//121 124//124 74//74
f 99//99 126//126 125//125 100//100
f 100//100 125//125 128//128 76//76
f 101//101 130//130 129//129 102//102
f 102//102 103//103 104//104 101//101
f 102//102 129//129 132//132 78//78
f 103//103 134//134 133//133 104//104
f 104//104 133//133 136//136 80//80
f 105//105 137//137 140//140 108//108
f 106//106 138//138 137//137 105//105
f 107//107 139//139 138//138 106//106
f 108//108 140//140 139//139 107//107
f 109//109 141//141 144//144 112//112
f 110//110 142//142 141//141 109//109
f 111//111 143//143 142//142 110//110
f 112//112 144//144 143//143 111//111
f 113//113 145//145 148//148 116//116
f 114//114 146//146 145//145 113//113
f 115//115 147//147 146//146 114//114
f 116//116 148//148 147//147 115//115
f 117//117 149//149 152//152 120//120
f 118//118 150//150 149//149 117//117
f 119//119 151//151 150//150 118//118
f 120//120 152//152 151//151 119//119
f 121//121 153//153 156//156 124//124
f 122//122 154//154 153//153 121//121
f 123//123 155//155 154//154 122//122
f 124//124 156//156 155//155 123//123
f 125//125 157//157 160//160 128//128
f 126//126 158//158 157//157 125//125
f 127//127 159//159 158//158 126//126
f 128//128 160//160 159//159 127//127
f 129//129 161//161 164//164 132//132
f 130//130 162//162 161//161 129//129
f 131//131 163//163 162//162 130//130
f 132//132 164//164 163//163 131//131
f 133//133 165//165 168//168 136//136
f 134//134 166//166 165//165 133//133
f 135//135 167//167 166//166 134//134
f 136//136 168//168 167//167 135//135
f 137//137 162//162 163//163 140//140
f 138//138 161//161 162//162 137//137
f 139//139 164//164 161//161 138//138
f 140//140 163//163 164//164 139//139
f 141//141 146//146 147//147 144//144
f 142//142 145//145 146//146 141//141
f 143//143 148//148 145//145 142//142
f 144//144 147//147 148//148 143//143
f 149//149 158//158 159//159 152//152
f 150//150 157//157 158//158 149//149
f 151//151 160//160 157//157 150//150
f 152//152 159//159 160//160 151//151
f 153//153 166//166 167//167 156//156
f 154//154 165//165 166//166 153//153
f 155//155 168//168 165//165 154//154
f 156//156 167//167 168//168 155//155
